<?xml version="1.0" encoding="UTF-8" standalone="no"?>
<!DOCTYPE svg PUBLIC "-//W3C//DTD SVG 1.1//EN"
 "http://www.w3.org/Graphics/SVG/1.1/DTD/svg11.dtd">
<!-- Generated by graphviz version 2.43.0 (0)
 -->
<!-- Title: %3 Pages: 1 -->
<svg width="1250pt" height="165pt"
 viewBox="0.00 0.00 1250.00 164.74" xmlns="http://www.w3.org/2000/svg" xmlns:xlink="http://www.w3.org/1999/xlink">
<g id="graph0" class="graph" transform="scale(1 1) rotate(0) translate(36 128.74)">
<title>%3</title>
<polygon fill="dimgray" stroke="transparent" points="-36,36 -36,-128.74 1214,-128.74 1214,36 -36,36"/>
<text text-anchor="middle" x="589" y="-77.54" font-family="Helvetica,sans-Serif" font-size="14.00">Sweep&#39;s Plan &amp; Progress</text>
<!-- start -->
<g id="node1" class="node">
<title>start</title>
</g>
<!-- 8bdcb7bd&#45;ff1f&#45;47c1&#45;b77d&#45;7ac10a553bd9 -->
<g id="node3" class="node">
<title>8bdcb7bd&#45;ff1f&#45;47c1&#45;b77d&#45;7ac10a553bd9</title>
<ellipse fill="#0ee832" stroke="black" cx="318.5" cy="-26.87" rx="265.74" ry="26.74"/>
<text text-anchor="middle" x="318.5" y="-30.67" font-family="Helvetica,sans-Serif" font-size="14.00">✓ Create</text>
<text text-anchor="middle" x="318.5" y="-15.67" font-family="Helvetica,sans-Serif" font-size="14.00">pkgs/modules/categories/categories.service_test.go</text>
</g>
<!-- start&#45;&gt;8bdcb7bd&#45;ff1f&#45;47c1&#45;b77d&#45;7ac10a553bd9 -->
<g id="edge2" class="edge">
<title>start&#45;&gt;8bdcb7bd&#45;ff1f&#45;47c1&#45;b77d&#45;7ac10a553bd9</title>
<path fill="none" stroke="black" d="M1.02,-26.87C3.98,-26.87 19.51,-26.87 42.24,-26.87"/>
<polygon fill="black" stroke="black" points="42.4,-30.37 52.4,-26.87 42.4,-23.37 42.4,-30.37"/>
<text text-anchor="middle" x="26.81" y="-33.67" font-family="Helvetica,sans-Serif" font-size="14.00">Start</text>
</g>
<!-- end -->
<g id="node2" class="node">
<title>end</title>
</g>
<!-- f1ab73a7&#45;1e60&#45;451b&#45;ab49&#45;9920fa9c6382 -->
<g id="node4" class="node">
<title>f1ab73a7&#45;1e60&#45;451b&#45;ab49&#45;9920fa9c6382</title>
<ellipse fill="#0ee832" stroke="black" cx="869.5" cy="-26.87" rx="249.72" ry="26.74"/>
<text text-anchor="middle" x="869.5" y="-30.67" font-family="Helvetica,sans-Serif" font-size="14.00">✓ Modify</text>
<text text-anchor="middle" x="869.5" y="-15.67" font-family="Helvetica,sans-Serif" font-size="14.00">pkgs/modules/categories/category.entity_test.go</text>
</g>
<!-- 8bdcb7bd&#45;ff1f&#45;47c1&#45;b77d&#45;7ac10a553bd9&#45;&gt;f1ab73a7&#45;1e60&#45;451b&#45;ab49&#45;9920fa9c6382 -->
<g id="edge1" class="edge">
<title>8bdcb7bd&#45;ff1f&#45;47c1&#45;b77d&#45;7ac10a553bd9&#45;&gt;f1ab73a7&#45;1e60&#45;451b&#45;ab49&#45;9920fa9c6382</title>
<path fill="none" stroke="black" d="M584.58,-26.87C592.89,-26.87 601.2,-26.87 609.51,-26.87"/>
<polygon fill="black" stroke="black" points="609.64,-30.37 619.64,-26.87 609.64,-23.37 609.64,-30.37"/>
</g>
<!-- f1ab73a7&#45;1e60&#45;451b&#45;ab49&#45;9920fa9c6382&#45;&gt;end -->
<g id="edge3" class="edge">
<title>f1ab73a7&#45;1e60&#45;451b&#45;ab49&#45;9920fa9c6382&#45;&gt;end</title>
<path fill="none" stroke="black" d="M1119.21,-26.87C1139.69,-26.87 1156.42,-26.87 1166.63,-26.87"/>
<polygon fill="black" stroke="black" points="1166.88,-30.37 1176.88,-26.87 1166.88,-23.37 1166.88,-30.37"/>
<text text-anchor="middle" x="1148.05" y="-33.67" font-family="Helvetica,sans-Serif" font-size="14.00">Finish</text>
</g>
</g>
</svg>
